<?xml version="1.0" encoding="utf-8"?>
<!-- Generator: Adobe Illustrator 27.3.1, SVG Export Plug-In . SVG Version: 6.00 Build 0)  -->
<svg version="1.1" id="Camada_1" xmlns="http://www.w3.org/2000/svg" xmlns:xlink="http://www.w3.org/1999/xlink" x="0px" y="0px"
	 viewBox="0 0 279 199" style="enable-background:new 0 0 279 199;" xml:space="preserve">
<style type="text/css">
	.st0{fill:#2F74EB;}
	.st1{fill:#FA8633;}
	.st2{fill:#16243E;}
</style>
<path class="st0" d="M184.21,148.05H61.47c-23.76,0-43.09-19.33-43.09-43.09c0-23.76,19.33-43.09,43.09-43.09h14.82
	c1.48,0,2.75-0.81,3.45-2c0.31-0.34,0.57-0.73,0.75-1.18c1.33-3.26,2.94-6.43,4.79-9.43c1.16-1.88,0.57-4.34-1.31-5.5
	c-1.88-1.16-4.34-0.57-5.5,1.31c-1.74,2.82-3.28,5.78-4.61,8.81H61.47c-28.17,0-51.09,22.92-51.09,51.09
	c0,28.17,22.92,51.09,51.09,51.09h122.73c2.21,0,4-1.79,4-4S186.42,148.05,184.21,148.05z"/>
<path class="st0" d="M196.96,148.05h-1.33c-2.21,0-4,1.79-4,4s1.79,4,4,4h1.33c2.21,0,4-1.79,4-4S199.17,148.05,196.96,148.05z"/>
<path class="st0" d="M218.44,53.87H205c-12.6-25.92-38.43-43.17-65.05-43.17c-20.87,0-40.71,9.03-54.43,24.77
	c-1.45,1.67-1.28,4.19,0.39,5.64c1.67,1.45,4.19,1.28,5.64-0.39c12.2-14,29.85-22.03,48.4-22.03c24.32,0,47.97,16.39,58.85,40.8
	c0.66,1.49,2.12,2.37,3.66,2.37c0.08,0,0.17-0.02,0.25-0.03c0.08,0.01,0.16,0.03,0.25,0.03h15.49c23.76,0,43.09,19.33,43.09,43.09
	c0,23.76-19.33,43.09-43.09,43.09h-9.57c-2.21,0-4,1.79-4,4s1.79,4,4,4h9.57c28.17,0,51.09-22.92,51.09-51.09
	C269.53,76.79,246.62,53.87,218.44,53.87z"/>
<path class="st1" d="M192.35,77.96c0.13,0.02,0.26,0.04,0.39,0.04h13.89c14.92,0,28.79,8.73,35.34,22.24
	c0.52,1.07,1.59,1.69,2.7,1.69c0.44,0,0.88-0.1,1.31-0.3c1.49-0.72,2.11-2.52,1.39-4.01C239.81,82.06,223.82,72,206.62,72h-12.77
	c-7.33-15.29-19.92-27.62-34.83-33.98c-1.52-0.65-3.29,0.06-3.94,1.58c-0.65,1.52,0.06,3.29,1.58,3.94
	c14.11,6.02,25.97,17.94,32.55,32.69c0.5,1.12,1.59,1.78,2.74,1.78C192.09,78,192.22,77.98,192.35,77.96z"/>
<path class="st1" d="M244.35,106.48c0.86,3,1.36,6.11,1.48,9.24c0.06,1.62,1.39,2.88,3,2.88c0.04,0,0.08,0,0.12,0
	c1.66-0.06,2.95-1.46,2.88-3.11c-0.14-3.61-0.71-7.2-1.71-10.67c-0.46-1.59-2.12-2.51-3.71-2.06
	C244.81,103.23,243.89,104.89,244.35,106.48z"/>
<g>
	<g>
		<path class="st2" d="M52.63,188.25c-2.58,0-4.77-0.57-6.57-1.71s-3.17-2.72-4.11-4.75c-0.94-2.03-1.41-4.37-1.41-7.04
			s0.47-5.01,1.41-7.04c0.94-2.03,2.31-3.61,4.11-4.75c1.8-1.14,3.99-1.71,6.57-1.71c3,0,5.47,0.76,7.41,2.29
			c1.94,1.52,3.27,3.58,4,6.16l-3.26,0.86c-0.53-1.93-1.47-3.46-2.83-4.57c-1.36-1.12-3.13-1.67-5.32-1.67
			c-1.93,0-3.54,0.44-4.82,1.31c-1.28,0.88-2.25,2.1-2.9,3.67s-0.98,3.39-0.99,5.45c-0.01,2.06,0.31,3.88,0.95,5.45
			c0.65,1.57,1.62,2.79,2.92,3.67s2.91,1.32,4.84,1.32c2.18,0,3.96-0.56,5.32-1.68s2.31-2.64,2.83-4.56l3.26,0.86
			c-0.73,2.58-2.07,4.63-4,6.16C58.1,187.49,55.63,188.25,52.63,188.25z"/>
		<path class="st2" d="M68.36,187.71v-26.46h3.2v26.46H68.36z"/>
		<path class="st2" d="M85.25,188.25c-1.93,0-3.6-0.44-5-1.31c-1.4-0.88-2.47-2.08-3.23-3.63c-0.76-1.54-1.13-3.32-1.13-5.34
			c0-2.03,0.38-3.81,1.15-5.35c0.77-1.54,1.85-2.74,3.26-3.6c1.4-0.86,3.05-1.29,4.95-1.29c1.94,0,3.62,0.44,5.02,1.31
			c1.4,0.88,2.48,2.08,3.23,3.62s1.12,3.31,1.12,5.31c0,2.03-0.38,3.81-1.13,5.36s-1.84,2.75-3.24,3.62
			C88.85,187.82,87.18,188.25,85.25,188.25z M85.25,185.21c2,0,3.5-0.67,4.49-2.02c0.99-1.34,1.48-3.08,1.48-5.22
			c0-2.18-0.5-3.93-1.49-5.24c-1-1.31-2.49-1.96-4.48-1.96c-1.36,0-2.47,0.31-3.35,0.92c-0.88,0.61-1.53,1.46-1.96,2.54
			c-0.43,1.08-0.65,2.33-0.65,3.74c0,2.18,0.5,3.94,1.51,5.26C81.81,184.55,83.29,185.21,85.25,185.21z"/>
		<path class="st2" d="M105.97,188.22c-1.26,0-2.33-0.2-3.22-0.59c-0.89-0.4-1.63-0.92-2.21-1.58s-1.05-1.39-1.39-2.2
			c-0.34-0.8-0.57-1.63-0.71-2.47s-0.21-1.63-0.21-2.36v-10.75h3.24v9.74c0,0.91,0.08,1.79,0.25,2.65c0.17,0.85,0.45,1.62,0.85,2.3
			c0.4,0.68,0.94,1.22,1.62,1.62c0.68,0.4,1.53,0.59,2.55,0.59c0.8,0,1.53-0.14,2.19-0.41c0.65-0.28,1.21-0.69,1.68-1.23
			c0.47-0.55,0.83-1.24,1.09-2.08c0.26-0.84,0.39-1.82,0.39-2.93l2.11,0.65c0,1.87-0.34,3.49-1.02,4.84
			c-0.68,1.36-1.63,2.4-2.86,3.12S107.63,188.22,105.97,188.22z M112.45,187.71v-5.2h-0.36v-14.24h3.22v19.44H112.45z"/>
		<path class="st2" d="M127.98,188.25c-1.81,0-3.37-0.45-4.66-1.35c-1.3-0.9-2.29-2.13-3-3.68c-0.7-1.55-1.05-3.3-1.05-5.25
			c0-1.94,0.35-3.69,1.05-5.24c0.7-1.55,1.7-2.77,3-3.66c1.3-0.89,2.84-1.34,4.64-1.34c1.84,0,3.38,0.45,4.63,1.34
			c1.25,0.89,2.19,2.11,2.84,3.65c0.64,1.54,0.96,3.29,0.96,5.25c0,1.94-0.32,3.69-0.96,5.24c-0.64,1.55-1.59,2.78-2.84,3.68
			C131.34,187.8,129.8,188.25,127.98,188.25z M128.38,185.32c1.31,0,2.38-0.32,3.22-0.95c0.84-0.63,1.46-1.5,1.86-2.61
			c0.4-1.11,0.6-2.37,0.6-3.79c0-1.43-0.2-2.69-0.61-3.8c-0.41-1.1-1.02-1.96-1.84-2.58c-0.82-0.62-1.87-0.93-3.14-0.93
			c-1.32,0-2.41,0.32-3.27,0.97c-0.86,0.65-1.49,1.52-1.91,2.63c-0.41,1.1-0.62,2.34-0.62,3.71c0,1.38,0.21,2.62,0.63,3.74
			c0.42,1.11,1.05,1.99,1.9,2.64C126.04,185,127.1,185.32,128.38,185.32z M134.06,187.71v-14.31h-0.36v-11.61h3.22v25.92H134.06z"/>
		<path class="st2" d="M158.36,188.25c-1.84,0-3.49-0.31-4.96-0.94c-1.47-0.62-2.68-1.51-3.64-2.67c-0.95-1.16-1.58-2.53-1.86-4.11
			l3.31-0.52c0.42,1.63,1.29,2.91,2.62,3.83c1.33,0.92,2.89,1.38,4.69,1.38c1.16,0,2.21-0.18,3.15-0.55s1.68-0.89,2.24-1.58
			c0.56-0.68,0.84-1.49,0.84-2.43c0-0.56-0.1-1.06-0.31-1.48c-0.2-0.42-0.47-0.77-0.81-1.06s-0.72-0.53-1.15-0.74
			c-0.43-0.2-0.88-0.38-1.35-0.52l-6.61-1.96c-0.72-0.2-1.42-0.47-2.09-0.8s-1.27-0.74-1.8-1.24c-0.53-0.5-0.95-1.1-1.26-1.81
			c-0.31-0.71-0.47-1.54-0.47-2.5c0-1.52,0.4-2.83,1.2-3.92s1.88-1.92,3.25-2.49c1.37-0.57,2.91-0.86,4.63-0.86
			c1.74,0.01,3.3,0.32,4.67,0.93c1.37,0.61,2.51,1.47,3.42,2.6c0.91,1.13,1.51,2.48,1.83,4.05l-3.4,0.59
			c-0.18-1.04-0.58-1.95-1.2-2.72c-0.62-0.77-1.39-1.36-2.31-1.77c-0.92-0.41-1.94-0.63-3.04-0.64c-1.06-0.01-2.01,0.16-2.86,0.51
			c-0.85,0.35-1.53,0.84-2.03,1.46s-0.76,1.32-0.76,2.11c0,0.8,0.23,1.45,0.68,1.93c0.46,0.48,1.02,0.86,1.68,1.14
			c0.67,0.28,1.32,0.51,1.95,0.69l4.93,1.42c0.56,0.16,1.21,0.37,1.95,0.65c0.74,0.28,1.46,0.66,2.15,1.16
			c0.7,0.5,1.27,1.16,1.73,1.98s0.68,1.86,0.68,3.1s-0.25,2.36-0.75,3.33c-0.5,0.97-1.19,1.79-2.08,2.45
			c-0.89,0.66-1.92,1.16-3.1,1.49S159.71,188.25,158.36,188.25z"/>
		<path class="st2" d="M169.68,170.92v-2.65h13.01v2.65H169.68z M182.7,187.71c-1.15,0.24-2.29,0.34-3.41,0.3s-2.12-0.27-3.01-0.68
			s-1.54-1.07-1.99-1.95c-0.38-0.77-0.59-1.54-0.62-2.33c-0.03-0.79-0.05-1.68-0.05-2.67v-17.5h3.2v17.35
			c0,0.79,0.01,1.47,0.03,2.03c0.02,0.56,0.14,1.05,0.37,1.46c0.43,0.77,1.12,1.22,2.06,1.35c0.94,0.13,2.08,0.1,3.41-0.11V187.71z"
			/>
		<path class="st2" d="M194.94,188.25c-1.93,0-3.6-0.44-5-1.31c-1.4-0.88-2.47-2.08-3.23-3.63c-0.76-1.54-1.13-3.32-1.13-5.34
			c0-2.03,0.38-3.81,1.15-5.35c0.77-1.54,1.85-2.74,3.26-3.6c1.4-0.86,3.05-1.29,4.95-1.29c1.94,0,3.62,0.44,5.02,1.31
			s2.48,2.08,3.23,3.62s1.12,3.31,1.12,5.31c0,2.03-0.38,3.81-1.13,5.36s-1.84,2.75-3.24,3.62
			C198.54,187.82,196.87,188.25,194.94,188.25z M194.94,185.21c2,0,3.5-0.67,4.49-2.02s1.49-3.08,1.49-5.22
			c0-2.18-0.5-3.93-1.49-5.24c-1-1.31-2.49-1.96-4.48-1.96c-1.36,0-2.47,0.31-3.35,0.92c-0.88,0.61-1.53,1.46-1.96,2.54
			c-0.43,1.08-0.65,2.33-0.65,3.74c0,2.18,0.5,3.94,1.51,5.26C191.5,184.55,192.98,185.21,194.94,185.21z"/>
		<path class="st2" d="M208.28,187.71v-19.44h2.86v4.7l-0.47-0.61c0.23-0.6,0.52-1.15,0.89-1.66s0.78-0.92,1.23-1.24
			c0.5-0.41,1.07-0.72,1.71-0.93c0.64-0.21,1.28-0.34,1.94-0.38c0.66-0.04,1.28,0,1.85,0.12v3.01c-0.67-0.17-1.41-0.21-2.21-0.13
			s-1.55,0.37-2.23,0.86c-0.62,0.46-1.11,1-1.45,1.63c-0.34,0.63-0.58,1.31-0.71,2.05c-0.13,0.74-0.2,1.49-0.2,2.26v9.76H208.28z"/>
		<path class="st2" d="M230.15,188.25c-1.91,0-3.57-0.42-5-1.27c-1.42-0.85-2.53-2.03-3.32-3.55c-0.79-1.52-1.19-3.29-1.19-5.32
			c0-2.12,0.39-3.96,1.17-5.52c0.78-1.55,1.87-2.75,3.27-3.6c1.4-0.85,3.04-1.27,4.92-1.27c1.96,0,3.62,0.45,5,1.35
			c1.37,0.9,2.41,2.18,3.1,3.85c0.69,1.67,0.99,3.65,0.89,5.96h-3.24v-1.15c-0.04-2.39-0.52-4.17-1.46-5.36
			c-0.94-1.18-2.33-1.77-4.18-1.77c-1.98,0-3.49,0.64-4.52,1.91c-1.03,1.27-1.55,3.1-1.55,5.47c0,2.29,0.52,4.07,1.55,5.33
			c1.03,1.26,2.5,1.89,4.41,1.89c1.28,0,2.4-0.29,3.35-0.88c0.95-0.59,1.69-1.43,2.23-2.54l3.08,1.06
			c-0.76,1.72-1.89,3.05-3.41,3.99C233.73,187.78,232.03,188.25,230.15,188.25z M222.96,178.89v-2.57h14.36v2.57H222.96z"/>
	</g>
</g>
</svg>
